<?xml version="1.0" encoding="UTF-8"?>
<svg width="17px" height="20px" viewBox="0 0 17 20" version="1.1" xmlns="http://www.w3.org/2000/svg" xmlns:xlink="http://www.w3.org/1999/xlink">
    <!-- Generator: Sketch 52.6 (67491) - http://www.bohemiancoding.com/sketch -->
    <title>notifications</title>
    <desc>Created with Sketch.</desc>
    <g id="Symbols" stroke="none" stroke-width="1" fill="none" fill-rule="evenodd">
        <g id="molecules/profile-bar" transform="translate(-1176.000000, -27.000000)" fill="#9B9B9B">
            <g id="notifications" transform="translate(1176.000000, 27.000000)">
                <path d="M8.5,20 C9.6,20 10.5,19.1 10.5,18 L6.5,18 C6.5,19.1 7.4,20 8.5,20 L8.5,20 Z M15,14 L15,8.5 C15,5.4 12.9,2.9 10,2.2 L10,1.5 C10,0.7 9.3,0 8.5,0 C7.7,0 7,0.7 7,1.5 L7,2.2 C4.1,2.9 2,5.4 2,8.5 L2,14 L0,16 L0,17 L17,17 L17,16 L15,14 L15,14 Z" id="Shape"></path>
            </g>
        </g>
    </g>
</svg>